<svg width="20" height="20" viewBox="0 0 20 20" fill="none" xmlns="http://www.w3.org/2000/svg">
<path d="M8.92676 0.449219C9.45369 -0.144945 10.3868 -0.149123 10.918 0.432617L11.2656 0.814453C11.6463 1.23211 12.2567 1.36282 12.7793 1.1416L13.2598 0.941406C13.9959 0.629948 14.8408 1.01938 15.0625 1.77344L15.209 2.26465C15.3679 2.8015 15.8618 3.17854 16.4307 3.20312L16.9531 3.22363C17.752 3.25642 18.3418 3.96978 18.208 4.74023L18.1201 5.24414C18.024 5.79724 18.3001 6.34605 18.8018 6.6084L19.2617 6.85059C19.9686 7.22352 20.1818 8.11264 19.7217 8.75195L19.4209 9.16992C19.0905 9.6289 19.099 10.2396 19.4336 10.6904L19.7432 11.1045C20.2157 11.7397 20.0148 12.6327 19.3164 13.0098L18.8604 13.2598C18.3627 13.5302 18.0957 14.0837 18.2002 14.6328L18.2959 15.1367C18.4423 15.9071 17.8652 16.6287 17.0664 16.6738L16.5439 16.7021C15.9752 16.7308 15.4895 17.1163 15.3389 17.6572L15.2012 18.1533C14.9879 18.9073 14.1514 19.3127 13.4111 19.0137L12.9258 18.8174C12.3989 18.6043 11.7925 18.7432 11.416 19.165L11.0732 19.5508C10.5505 20.1449 9.61742 20.1491 9.08203 19.5674L8.73438 19.1855C8.35374 18.7679 7.74332 18.6372 7.2207 18.8584L6.74023 19.0586C6.00412 19.3701 5.15917 18.9806 4.9375 18.2266L4.79102 17.7354C4.63208 17.1985 4.13815 16.8215 3.56934 16.7969L3.04688 16.7764C2.24802 16.7436 1.65815 16.0302 1.79199 15.2598L1.87988 14.7559C1.97603 14.2028 1.6999 13.6539 1.19824 13.3916L0.738281 13.1494C0.031445 12.7765 -0.181751 11.8874 0.27832 11.248L0.579102 10.8301C0.909505 10.3711 0.90097 9.76036 0.566406 9.30957L0.256836 8.89551C-0.215677 8.26443 -0.0147584 7.37138 0.683594 6.99023L1.13965 6.74023C1.63733 6.46976 1.90434 5.91632 1.7998 5.36719L1.7041 4.86328C1.55772 4.09287 2.13481 3.37132 2.93359 3.32617L3.45605 3.29785C4.02483 3.26917 4.51053 2.88366 4.66113 2.34277L4.79883 1.84668C5.01211 1.0927 5.84863 0.687337 6.58887 0.986328L7.07422 1.18262C7.60105 1.39566 8.20754 1.25678 8.58398 0.834961L8.92676 0.449219ZM12.708 9.67871C11.5705 9.67878 10.6505 10.5798 10.6504 11.6943C10.6504 12.809 11.5704 13.7109 12.708 13.7109C13.8456 13.7109 14.7656 12.809 14.7656 11.6943C14.7655 10.5798 13.8456 9.67871 12.708 9.67871ZM13.0137 6.43652C12.8004 6.26445 12.4823 6.29311 12.3066 6.50195L6.90723 12.875C6.73164 13.0839 6.76055 13.3952 6.97363 13.5674C7.18689 13.7395 7.50498 13.7108 7.68066 13.502L13.0801 7.12891C13.2557 6.91992 13.2269 6.60864 13.0137 6.43652ZM12.708 10.8584C13.1791 10.8584 13.5614 11.2327 13.5615 11.6943C13.5615 12.1561 13.1792 12.5303 12.708 12.5303C12.2368 12.5302 11.8545 12.156 11.8545 11.6943C11.8546 11.2328 12.2369 10.8585 12.708 10.8584ZM7.2832 6.28516C6.14571 6.28531 5.22559 7.18716 5.22559 8.30176C5.22583 9.41206 6.14585 10.3172 7.2832 10.3174C8.42068 10.3174 9.34058 9.41625 9.34082 8.30176C9.34082 7.18706 8.42083 6.28516 7.2832 6.28516ZM7.28809 7.46484C7.75912 7.46506 8.14062 7.84017 8.14062 8.30176C8.14038 8.76314 7.75897 9.13748 7.28809 9.1377C6.81701 9.1377 6.43481 8.76328 6.43457 8.30176C6.43457 7.84004 6.81686 7.46484 7.28809 7.46484Z" fill="white"/>
</svg>
