<svg width="26" height="10" viewBox="0 0 26 10" fill="none" xmlns="http://www.w3.org/2000/svg">
<path d="M12.196 7.74211H11.2963V0.741467H13.6814C14.2859 0.741467 14.8013 0.942959 15.223 1.34594C15.6541 1.74892 15.8697 2.24094 15.8697 2.82198C15.8697 3.41708 15.6541 3.90909 15.223 4.30739C14.806 4.70569 14.2906 4.90249 13.6814 4.90249H12.196V7.74211ZM12.196 1.60366V4.04498H13.7001C14.0563 4.04498 14.3562 3.92315 14.5905 3.68417C14.8294 3.4452 14.9513 3.15467 14.9513 2.82666C14.9513 2.50334 14.8294 2.21751 14.5905 1.97853C14.3562 1.73018 14.061 1.60835 13.7001 1.60835H12.196V1.60366Z" fill="#3C4043"/>
<path d="M18.2219 2.79386C18.8873 2.79386 19.4121 2.97193 19.7963 3.32805C20.1805 3.68417 20.3727 4.1715 20.3727 4.79003V7.74211H19.5152V7.07672H19.4777C19.1075 7.62496 18.6108 7.89674 17.9923 7.89674C17.4628 7.89674 17.0223 7.74211 16.6662 7.42816C16.3101 7.11421 16.132 6.72528 16.132 6.2567C16.132 5.76 16.3194 5.36639 16.6943 5.07587C17.0692 4.78066 17.5705 4.6354 18.1938 4.6354C18.7279 4.6354 19.1684 4.7338 19.5105 4.93061V4.72443C19.5105 4.41048 19.3886 4.14807 19.1403 3.92784C18.8919 3.7076 18.6014 3.59983 18.2687 3.59983C17.7673 3.59983 17.369 3.81069 17.0785 4.2371L16.2866 3.7404C16.7224 3.10782 17.369 2.79386 18.2219 2.79386ZM17.0598 6.27076C17.0598 6.50505 17.1582 6.70185 17.3597 6.85649C17.5565 7.01112 17.7908 7.09078 18.0579 7.09078C18.4374 7.09078 18.7748 6.9502 19.07 6.66905C19.3652 6.3879 19.5152 6.05989 19.5152 5.68034C19.234 5.46011 18.8451 5.34765 18.3437 5.34765C17.9782 5.34765 17.6736 5.43668 17.43 5.61005C17.1816 5.7928 17.0598 6.01303 17.0598 6.27076Z" fill="#3C4043"/>
<path d="M25.2647 2.94854L22.2658 9.8461H21.338L22.4532 7.43289L20.4758 2.94854H21.4551L22.8796 6.38795H22.8984L24.2854 2.94854H25.2647Z" fill="#3C4043"/>
<path d="M8.61738 4.33551C8.61738 4.04218 8.59114 3.76149 8.54241 3.49159H4.77126V5.03792L6.94314 5.03838C6.85505 5.55289 6.57155 5.99148 6.13718 6.28388V7.28712H7.42999C8.18488 6.58846 8.61738 5.5557 8.61738 4.33551Z" fill="#4285F4"/>
<path d="M6.13764 6.28393C5.77777 6.52665 5.31434 6.66864 4.77219 6.66864C3.72491 6.66864 2.83648 5.96295 2.51831 5.01172H1.18473V6.04636C1.84543 7.35745 3.20338 8.25713 4.77219 8.25713C5.85649 8.25713 6.76741 7.90054 7.43045 7.2867L6.13764 6.28393Z" fill="#34A853"/>
<path d="M2.39269 4.24413C2.39269 3.97703 2.43721 3.71884 2.51827 3.47612V2.44148H1.18469C0.911507 2.98363 0.757812 3.59561 0.757812 4.24413C0.757812 4.89265 0.911975 5.50462 1.18469 6.04677L2.51827 5.01214C2.43721 4.76941 2.39269 4.51122 2.39269 4.24413Z" fill="#FABB05"/>
<path d="M4.77219 1.81921C5.36401 1.81921 5.89397 2.02305 6.31242 2.42134L7.4581 1.27659C6.76226 0.628541 5.85508 0.230713 4.77219 0.230713C3.20385 0.230713 1.84539 1.13039 1.18469 2.44148L2.51827 3.47612C2.83644 2.52489 3.72491 1.81921 4.77219 1.81921Z" fill="#E94235"/>
</svg>
