<svg width="17" height="20" viewBox="0 0 17 20" fill="none" xmlns="http://www.w3.org/2000/svg">
<path fill-rule="evenodd" clip-rule="evenodd" d="M13.7765 11.2553H13.7758C13.657 11.2246 13.5386 11.2012 13.4197 11.1852C13.4161 11.1846 13.4124 11.184 13.4081 11.1828C13.2868 11.1674 13.166 11.1582 13.0477 11.1582C12.966 11.1582 12.8849 11.1631 12.805 11.1704C12.7806 11.1729 12.7575 11.1766 12.733 11.1791C12.6763 11.1865 12.6202 11.1951 12.5647 11.2061C12.5385 11.211 12.5129 11.2166 12.4873 11.2234C12.4318 11.2356 12.3775 11.2504 12.3232 11.2676C12.3013 11.275 12.2793 11.2812 12.2573 11.2873C12.1842 11.3131 12.1116 11.3414 12.0415 11.3746C12.0408 11.3746 12.0403 11.3752 12.0403 11.3752C11.9317 11.4269 11.8286 11.489 11.7292 11.5591C11.6572 11.6101 11.5878 11.6636 11.5213 11.7239C11.506 11.7381 11.4932 11.7534 11.478 11.7682C11.4042 11.8407 11.3365 11.917 11.2755 11.9988C11.181 12.1236 11.0999 12.2576 11.0334 12.3997C10.9755 12.3277 10.8968 12.2294 10.8022 12.1113C10.7297 12.0202 10.6431 11.9133 10.5516 11.7983C10.3918 11.5985 10.2034 11.3648 9.99419 11.1028C9.87773 10.9577 9.7551 10.8052 9.62584 10.6435C9.50019 10.4867 9.36968 10.3237 9.23431 10.1546C9.22762 10.1454 9.22088 10.1368 9.21357 10.1288C8.94706 9.79614 8.66441 9.44221 8.36829 9.07328C9.77829 5.74542 11.1669 1.8798 10.9418 0.000335069C10.701 0.530352 8.92816 4.4283 7.37793 7.83858C5.08061 4.97091 2.52258 1.77801 2.16796 1.33525C2.40402 3.16616 4.59271 6.44821 6.72537 9.27465C6.10758 10.633 5.57702 11.8014 5.26721 12.4814C5.20533 12.4064 5.13915 12.3338 5.06593 12.2668C4.65001 11.885 4.11302 11.7017 3.54041 11.7017C2.66865 11.7017 1.71516 12.1285 0.989428 12.9315C-0.212607 14.2628 -0.337009 16.1229 0.712891 17.0871C1.12882 17.4683 1.66576 17.6528 2.23841 17.6528C3.1108 17.6528 4.06372 17.2255 4.78945 16.4217C5.20778 15.9581 5.49262 15.4305 5.64627 14.8992L5.65938 14.9336C5.65938 14.9336 6.61804 13.0471 7.72006 10.5678C8.0131 10.9404 8.29669 11.2977 8.56894 11.6359C8.58085 11.6501 8.59245 11.6648 8.6043 11.6796C8.63694 11.7202 8.66927 11.7607 8.70186 11.8013C8.70677 11.8074 8.71194 11.8135 8.71617 11.8191C8.85431 11.9894 8.98785 12.1542 9.11774 12.3129C9.12019 12.316 9.12202 12.3184 9.12447 12.3215C9.37814 12.6314 9.61415 12.9167 9.82639 13.1713C9.83616 13.183 9.84467 13.1935 9.85386 13.2045C9.98986 13.3675 10.1167 13.5181 10.2314 13.654C10.2368 13.6601 10.2424 13.6669 10.2472 13.6731C10.4052 13.8606 10.54 14.0186 10.6479 14.1453C10.6497 14.1465 10.6504 14.1477 10.6516 14.149C10.8382 14.3667 10.9455 14.4902 10.9455 14.4902L10.9547 14.4073C11.1114 14.9213 11.3913 15.4305 11.7969 15.8793C12.5232 16.6836 13.4752 17.1104 14.3479 17.1104C14.9205 17.1104 15.4572 16.9259 15.8731 16.5446C16.9227 15.5805 16.7983 13.721 15.5962 12.3891C15.0706 11.805 14.4247 11.4232 13.7765 11.2553ZM4.41588 14.5389C4.31095 14.9029 4.11307 15.2528 3.84259 15.5523C3.38551 16.0577 2.78606 16.3603 2.23836 16.3603C1.96423 16.3603 1.74075 16.2827 1.57514 16.1315C1.06745 15.6654 1.23667 14.5758 1.93676 13.801C2.39384 13.2937 2.99397 12.9918 3.54098 12.9918C3.81512 12.9918 4.03859 13.0693 4.20483 13.2205C4.22677 13.2409 4.25241 13.2698 4.28166 13.3042L4.64515 13.7469L4.41588 14.5389ZM7.62036 9.61904C7.44347 9.61904 7.29985 9.47486 7.29985 9.29619C7.29985 9.11725 7.44285 8.97307 7.62036 8.97307C7.79689 8.97307 7.94051 9.11725 7.94051 9.29619C7.94051 9.47481 7.79689 9.61904 7.62036 9.61904ZM15.012 15.5879C14.8468 15.7404 14.6236 15.8167 14.3491 15.8167C13.802 15.8167 13.202 15.5148 12.7446 15.0087C12.6043 14.8525 12.4842 14.6822 12.3854 14.5045C12.6672 13.8465 12.9623 13.156 13.2587 12.4642C13.7442 12.53 14.2516 12.8159 14.6498 13.2574C15.3511 14.0334 15.52 15.1224 15.012 15.5879ZM13.5453 0.00217815C13.4246 -0.0165686 13.3971 0.0903826 13.4868 0.143305C14.14 0.534406 14.6979 0.914712 15.095 1.31935L13.3142 0.545096L13.1996 0.813185L15.4816 1.80624C15.5585 1.93383 15.617 2.06632 15.6585 2.2016L13.0849 1.08185L12.9703 1.35084L15.7195 2.54715C15.7268 2.64857 15.7213 2.75316 15.7073 2.86074L12.8545 1.61987L12.7398 1.88859L15.6433 3.15163C15.622 3.22293 15.5939 3.29581 15.5629 3.36959L12.6483 2.10134L12.5337 2.36974L15.45 3.63894C15.4189 3.71214 15.3848 3.79328 15.3433 3.88891L12.427 2.62035L12.3117 2.88907L15.2287 4.15853C15.1921 4.24215 15.1542 4.33225 15.1134 4.42693L12.1965 3.15805L12.0824 3.42556L14.9987 4.69502C14.9609 4.7817 14.9231 4.87054 14.8834 4.96374L11.9671 3.69455L11.8519 3.96327L14.7682 5.23273C14.7639 5.2441 14.759 5.25395 14.7541 5.26532C14.7541 5.26532 14.7212 5.34405 14.662 5.48265L11.7451 4.21377L11.6298 4.48281L14.5461 5.75137C14.5114 5.83283 14.4742 5.92078 14.4315 6.02041L11.5145 4.75111L11.3992 5.02014L14.3162 6.28934C14.2893 6.35237 14.2619 6.41598 14.2326 6.48397L11.3163 5.21477L11.201 5.48349L14.1173 6.75237C14.082 6.83357 14.0473 6.91593 14.0106 7.00235L11.0943 5.73289L10.9784 6.00187L13.8954 7.27107C13.8582 7.35806 13.8192 7.44879 13.7807 7.5401L10.8644 6.27064L10.7485 6.53873L13.6649 7.80819C13.6277 7.89645 13.5893 7.98592 13.5502 8.0766L10.6339 6.80772L10.5193 7.07581L13.4356 8.34527C13.4002 8.42768 13.3642 8.51099 13.3289 8.59524L10.412 7.32636L10.2967 7.59476L13.213 8.86422C13.1751 8.9528 13.1367 9.0429 13.0984 9.13295L10.1814 7.86438L10.0662 8.13247L12.9825 9.40193C12.9513 9.47544 12.9196 9.5498 12.8879 9.6242L9.97101 8.35474L9.85637 8.62347L12.7732 9.89293C12.7379 9.97592 12.702 10.0593 12.6659 10.1429L9.74962 8.87344L9.63498 9.14248L12.5513 10.4117C12.5202 10.4824 12.4903 10.5531 12.4598 10.6244L9.54354 9.35464L9.42947 9.62368L12.2482 10.8501C12.5001 10.7769 12.7672 10.7376 13.0472 10.7376C13.3436 10.7376 13.6448 10.7868 13.9418 10.8698C15.0938 8.1777 16.0915 5.84689 16.0915 5.84689C16.455 4.99803 16.7362 4.33947 16.8697 4.03015C17.4862 2.58691 15.839 0.354785 13.5453 0.00217815ZM11.0737 11.5922C11.1279 11.5307 11.181 11.468 11.2407 11.4127C11.2584 11.3974 11.2767 11.3844 11.2938 11.3691L10.4485 11.0014L10.8407 11.4902L11.0737 11.5922ZM10.6431 14.7775L7.76002 13.5237L7.64475 13.7925L10.5614 15.0617C10.523 15.1532 10.484 15.2424 10.4467 15.3309L7.5298 14.0617L7.41485 14.3298L10.3308 15.5996C10.2949 15.6839 10.2595 15.7675 10.2241 15.8499L7.30753 14.5807L7.19258 14.8488L10.1089 16.1186C10.0692 16.2102 10.0314 16.3 9.99362 16.3874L7.07763 15.1182L6.96205 15.3869L9.87836 16.6554C9.84603 16.733 9.8137 16.806 9.78325 16.8787L6.86664 15.6089L6.75169 15.877L9.66799 17.1468C9.63013 17.2346 9.5942 17.3183 9.56124 17.397L6.64431 16.1273L6.52936 16.396L9.4453 17.6657C9.402 17.7672 9.36362 17.857 9.33066 17.9338L6.41436 16.6652L6.29878 16.9334L9.21357 18.2026C9.17451 18.2966 9.13064 18.3839 9.08426 18.4646L6.18321 17.2027L6.06768 17.4708L8.91473 18.7093C8.85071 18.788 8.78365 18.8562 8.71074 18.9171L5.96093 17.7211L5.84536 17.9892L8.41953 19.1095C8.2933 19.1729 8.1585 19.2196 8.01305 19.2516L5.73035 18.2579L5.61509 18.526L7.39522 19.3008C6.81587 19.2873 6.14075 19.1311 5.38942 18.9122C5.29521 18.8839 5.28758 18.9921 5.38394 19.0684C7.21107 20.5079 9.95142 20.1857 10.5686 18.7425C10.7222 18.3834 11.1119 17.4721 11.6169 16.2927C11.5736 16.2484 11.5279 16.2079 11.4863 16.1611C11.1218 15.7528 10.8321 15.2786 10.6431 14.7775ZM11.8811 10.9872L9.66366 10.0221L9.80205 10.1946L10.0557 10.5113L11.5608 11.1661C11.6627 11.0991 11.7701 11.0388 11.8811 10.9872ZM7.87497 13.2549L10.2076 14.2708C10.0863 14.1281 9.94359 13.9597 9.78012 13.7659L7.98929 12.9869L7.87497 13.2549ZM8.29544 12.2736L8.6851 12.4421C8.58628 12.3216 8.48507 12.1974 8.38198 12.0694L8.29544 12.2736ZM8.09724 12.7366L9.38983 13.2993C9.26052 13.1443 9.12212 12.9764 8.97882 12.8024L8.21161 12.4679L8.09724 12.7366Z" fill="white"/>
</svg>
