<svg width="52" height="64" viewBox="0 0 52 64" fill="none" xmlns="http://www.w3.org/2000/svg">
<path d="M26 0C40.3591 0 52 11.6773 52 26.0811C51.9999 43.2326 35.0953 51.4435 32.9775 53.3545C30.8148 55.3082 29.0275 59.6801 28.3066 62.1602C27.9568 63.3622 26.9762 63.9715 26 64C25.0262 63.9739 24.0432 63.3645 23.6934 62.1602C22.9725 59.6801 21.1852 55.3058 19.0225 53.3545C16.9047 51.4435 0.000144124 43.2326 0 26.0811C0 11.6773 11.6409 0 26 0ZM26 18.9678C22.0835 18.9678 18.9092 22.1523 18.9092 26.0811C18.9093 30.0097 22.0835 33.1934 26 33.1934C29.9165 33.1934 33.0907 30.0097 33.0908 26.0811C33.0908 22.1523 29.9165 18.9678 26 18.9678Z" fill="url(#paint0_linear_8_6049)"/>
<defs>
<linearGradient id="paint0_linear_8_6049" x1="-0.00381151" y1="31.9999" x2="51.9998" y2="31.9999" gradientUnits="userSpaceOnUse">
<stop stop-color="#D0AA5D"/>
<stop offset="0.31" stop-color="#826A36"/>
<stop offset="0.35" stop-color="#876E38"/>
<stop offset="0.4" stop-color="#977A3F"/>
<stop offset="0.46" stop-color="#B08F4A"/>
<stop offset="0.53" stop-color="#D4AB59"/>
<stop offset="0.59" stop-color="#FFCD6C"/>
<stop offset="0.82" stop-color="#806B42"/>
<stop offset="1" stop-color="#876825"/>
</linearGradient>
</defs>
</svg>
