<svg width="26" height="32" viewBox="0 0 26 32" fill="none" xmlns="http://www.w3.org/2000/svg">
<path d="M13 0C20.1794 0 25.9998 5.83835 26 13.04C26 21.6159 17.5472 25.7213 16.4883 26.6768C15.4069 27.6536 14.5138 29.8401 14.1533 31.0801C13.9784 31.6811 13.4881 31.9858 13 32C12.5131 31.987 12.0216 31.6823 11.8467 31.0801C11.4862 29.8401 10.5931 27.6524 9.51172 26.6768C8.45281 25.7213 0 21.6159 0 13.04C0.000203992 5.83835 5.82058 0 13 0ZM13 9.48438C11.0419 9.48438 9.45431 11.0759 9.4541 13.04C9.4541 15.0044 11.0417 16.5967 13 16.5967C14.9583 16.5967 16.5459 15.0044 16.5459 13.04C16.5457 11.0759 14.9581 9.48438 13 9.48438Z" fill="#FF1010"/>
</svg>
