<svg width="22" height="14" viewBox="0 0 22 14" fill="none" xmlns="http://www.w3.org/2000/svg">
<path d="M13.9403 1.61182H8.05093V12.2216H13.9403V1.61182Z" fill="#FF5F00"/>
<path d="M8.42491 6.9167C8.42397 5.8949 8.65494 4.88628 9.10033 3.9672C9.54572 3.04812 10.1939 2.24266 10.9957 1.61181C10.0027 0.829406 8.81026 0.34284 7.55453 0.207726C6.2988 0.0726125 5.03048 0.294397 3.89455 0.847741C2.75861 1.40109 1.80088 2.26366 1.13084 3.33687C0.460793 4.41008 0.105469 5.65062 0.105469 6.9167C0.105469 8.18279 0.460793 9.42333 1.13084 10.4965C1.80088 11.5697 2.75861 12.4323 3.89455 12.9857C5.03048 13.539 6.2988 13.7608 7.55453 13.6257C8.81026 13.4906 10.0027 13.004 10.9957 12.2216C10.1939 11.5907 9.54573 10.7853 9.10035 9.8662C8.65496 8.94712 8.42398 7.9385 8.42491 6.9167Z" fill="#EB001B"/>
<path d="M21.8855 6.9167C21.8856 8.18277 21.5303 9.4233 20.8603 10.4965C20.1903 11.5697 19.2326 12.4323 18.0967 12.9856C16.9607 13.539 15.6924 13.7608 14.4367 13.6257C13.181 13.4906 11.9886 13.004 10.9957 12.2216C11.7968 11.5901 12.4444 10.7845 12.8897 9.86558C13.335 8.94664 13.5664 7.93834 13.5664 6.9167C13.5664 5.89506 13.335 4.88676 12.8897 3.96782C12.4444 3.04888 11.7968 2.2433 10.9957 1.61181C11.9886 0.829404 13.181 0.342837 14.4367 0.207725C15.6924 0.0726124 16.9607 0.294407 18.0967 0.847757C19.2326 1.40111 20.1903 2.26368 20.8603 3.33689C21.5303 4.4101 21.8856 5.65063 21.8855 6.9167Z" fill="#F79E1B"/>
<path d="M21.2434 11.0979V10.8806H21.3307V10.8364H21.1082V10.8806H21.1956V11.0979H21.2434ZM21.6754 11.0979V10.836H21.6072L21.5287 11.0161L21.4502 10.836H21.382V11.0979H21.4302V10.9003L21.5037 11.0706H21.5537L21.6272 10.8999V11.0979H21.6754Z" fill="#F79E1B"/>
</svg>
