<svg width="20" height="19" viewBox="0 0 20 19" fill="none" xmlns="http://www.w3.org/2000/svg">
<path fill-rule="evenodd" clip-rule="evenodd" d="M19.1187 8.25395H15.407L12.7419 0.595115C12.5806 0.131509 12.0776 -0.112369 11.6183 0.0505545C11.1591 0.213433 10.9176 0.721328 11.0789 1.18498L13.5388 8.25391H6.46121L8.92106 1.18498C9.08239 0.721328 8.84092 0.213433 8.38169 0.0505545C7.92258 -0.112369 7.41944 0.131509 7.25811 0.595115L4.59298 8.25395H0.88132C0.394588 8.25395 0 8.65229 0 9.14375C0 9.63516 0.394588 10.0335 0.88132 10.0335H1.12279L3.28237 17.9913C3.44405 18.587 3.98032 19 4.59211 19H15.4679C16.0829 19 16.6212 18.5827 16.7799 17.9828L18.8832 10.0335H19.1186C19.6054 10.0335 20 9.63516 20 9.14375C20 8.65234 19.6054 8.25395 19.1187 8.25395ZM7.11224 16.0913C7.11224 16.5827 6.71765 16.9811 6.23092 16.9811C5.74419 16.9811 5.3496 16.5827 5.3496 16.0913V11.5732C5.3496 11.0818 5.74419 10.6834 6.23092 10.6834C6.71765 10.6834 7.11224 11.0818 7.11224 11.5732V16.0913ZM10.8813 16.0913C10.8813 16.5827 10.4867 16.9811 9.99998 16.9811C9.51325 16.9811 9.11866 16.5827 9.11866 16.0913V11.5732C9.11866 11.0818 9.51325 10.6834 9.99998 10.6834C10.4867 10.6834 10.8813 11.0818 10.8813 11.5732V16.0913ZM14.6504 16.0913C14.6504 16.5827 14.2558 16.9811 13.769 16.9811C13.2823 16.9811 12.8877 16.5827 12.8877 16.0913V11.5732C12.8877 11.0818 13.2823 10.6834 13.769 10.6834C14.2558 10.6834 14.6504 11.0818 14.6504 11.5732V16.0913Z" fill="white"/>
</svg>
