<svg width="28" height="10" viewBox="0 0 28 10" fill="none" xmlns="http://www.w3.org/2000/svg">
<path d="M13.8211 0.67363L11.9554 9.55081H9.69935L11.5654 0.67363H13.8211ZM23.3132 6.40566L24.501 3.07197L25.1845 6.40566H23.3132ZM25.8304 9.55081H27.9172L26.0962 0.67363H24.17C23.7372 0.67363 23.372 0.929873 23.2094 1.32491L19.8247 9.55081H22.1939L22.6643 8.2252H25.5588L25.8304 9.55081ZM19.9423 6.65235C19.9519 4.30935 16.759 4.18039 16.7811 3.13379C16.7877 2.81489 17.0861 2.4766 17.7378 2.38978C18.0616 2.34679 18.9518 2.31392 19.9627 2.78735L20.3585 0.904867C19.8156 0.704256 19.1169 0.51123 18.2479 0.51123C16.0181 0.51123 14.4486 1.71799 14.4353 3.44594C14.4212 4.72378 15.5558 5.43688 16.4106 5.8617C17.2895 6.29692 17.5849 6.57564 17.581 6.96478C17.5752 7.56071 16.8799 7.82314 16.2312 7.83353C15.0967 7.8518 14.4384 7.52194 13.9136 7.273L13.5048 9.21814C14.0318 9.46455 15.0048 9.67865 16.0143 9.68961C18.384 9.68961 19.9345 8.49774 19.9423 6.65235ZM10.5973 0.67363L6.94202 9.55081H4.55678L2.75812 2.46621C2.64881 2.02986 2.55385 1.87027 2.22178 1.68624C1.67992 1.38701 0.78418 1.10576 -0.00390625 0.931559L0.0499209 0.67363H3.88877C4.37791 0.67363 4.81819 1.00517 4.92915 1.57863L5.87927 6.71584L8.22697 0.67363H10.5973Z" fill="white"/>
</svg>
